<svg width="116" height="151" viewBox="0 0 116 151" fill="none" xmlns="http://www.w3.org/2000/svg">
<g filter="url(#filter0_d_0_308)">
<rect x="6" width="104" height="139" rx="6" fill="white"/>
<rect x="13" y="7" width="90" height="125" rx="5" stroke="#00B1DB" stroke-width="2"/>
<mask id="mask0_0_308" style="mask-type:alpha" maskUnits="userSpaceOnUse" x="12" y="6" width="92" height="127">
<rect x="12" y="6" width="92" height="127" rx="6" fill="#C4C4C4"/>
</mask>
<g mask="url(#mask0_0_308)">
<path opacity="0.4" d="M12.337 133C42.8231 133 73.2453 133 103.742 133C103.817 131.995 103.934 131.002 103.945 130.009C103.977 127.274 104.051 124.539 103.945 121.816C103.817 118.378 103.199 115.029 101.845 111.871C100.523 108.768 98.455 106.323 95.8435 104.348C93.104 102.283 90.0554 100.82 87.0707 99.2131C83.4998 97.3044 79.9502 95.3623 76.4432 93.3197C74.727 92.3262 73.1387 91.0873 71.4972 89.9488C71.3693 89.8595 71.252 89.6251 71.252 89.4576C71.2307 87.9173 71.2307 86.3658 71.252 84.8255C71.252 84.6357 71.3266 84.4237 71.4226 84.2562C73.0002 81.3876 74.0981 78.3181 74.8656 75.1147C74.9509 74.7575 75.0681 74.5231 75.4199 74.3334C76.7949 73.6302 77.4772 72.3131 77.9462 70.8843C78.8309 68.2278 78.9908 65.5043 78.3512 62.7585C78.138 61.8656 77.7543 61.0173 77.5518 60.1132C77.4452 59.6555 77.5624 59.1309 77.6157 58.651C77.9142 56.2735 78.3299 53.9183 78.5218 51.5297C78.8309 47.69 78.6071 43.8727 77.3173 40.2004C76.0701 36.6398 73.8956 33.8494 70.8363 31.8291C67.0628 29.3288 62.9056 28.034 58.418 28.0005C53.44 27.9671 48.931 29.4628 45.0616 32.8001C42.1622 35.3004 40.2222 38.4927 39.1669 42.2765C38.6553 44.0959 38.4101 45.9488 38.3461 47.824C38.2502 51.0944 38.1756 54.3648 38.1116 57.6352C38.101 57.9701 38.1329 58.3161 38.2182 58.6286C38.5273 59.7113 38.037 60.6378 37.7492 61.62C36.7792 64.9686 36.8112 68.2948 38.1116 71.5429C38.6553 72.9046 39.4441 74.0878 40.9044 74.5678C41.0217 74.6124 41.1389 74.8245 41.1816 74.9807C42.045 78.6865 43.3561 82.2025 45.3388 85.4171C45.424 85.5622 45.4773 85.7631 45.488 85.9305C45.4987 86.9574 45.5093 87.9731 45.488 89C45.488 89.1674 45.3707 89.3907 45.2322 89.4911C42.0556 91.7793 38.8471 94.0005 35.4148 95.8311C31.7692 97.7732 28.081 99.6596 24.4461 101.635C21.728 103.109 19.1697 104.85 17.0911 107.261C15.0018 109.672 13.7227 112.518 12.9872 115.654C11.8253 120.61 11.8893 125.633 12.1771 130.678C12.1984 131.069 12.209 131.46 12.241 131.85C12.2517 132.219 12.305 132.587 12.337 133ZM77.136 61.4414C77.232 61.6647 77.3066 61.7763 77.3279 61.8991C77.5198 63.2162 77.8183 64.5333 77.8716 65.8504C77.9568 67.7925 77.6477 69.7012 76.8163 71.4759C76.3366 72.5028 75.729 73.3958 74.5991 73.7418C74.4499 73.7864 74.3006 74.032 74.2473 74.2217C73.7143 75.9853 73.2666 77.7935 72.6484 79.5236C71.4012 83.0173 69.6211 86.1984 67.0308 88.8103C65.1548 90.7078 62.9909 92.0919 60.422 92.6499C57.0429 93.3866 53.941 92.5941 51.1162 90.5627C47.9503 88.2857 45.8504 85.1045 44.2408 81.5216C43.1962 79.1999 42.4394 76.7666 41.8744 74.2664C41.7998 73.9204 41.6186 73.8311 41.3308 73.6971C40.8191 73.4739 40.2435 73.2283 39.9131 72.8153C39.4014 72.168 38.9644 71.409 38.6766 70.6276C37.9091 68.5292 37.7599 66.3303 38.037 64.0979C38.0903 63.6738 38.1649 63.2496 38.2609 62.8367C38.3461 62.446 38.4527 62.0553 38.5593 61.6758C38.9857 63.1157 39.3801 64.5221 40.0836 65.9508C40.2329 65.069 40.3714 64.3323 40.4674 63.5957C40.8618 60.5038 41.1816 57.4008 41.6506 54.3202C42.0237 51.8757 42.6632 49.4983 44.049 47.411C45.7012 44.9219 48.0676 43.828 50.9457 43.5155C49.901 45.6363 48.8884 47.6789 47.8864 49.7327C52.8431 46.8083 58.0129 44.7322 63.7157 44.2522C62.1914 45.1786 61.1042 46.5404 59.9743 48.0249C60.1874 47.9914 60.294 47.9802 60.39 47.9579C62.2554 47.6119 64.1208 47.2436 66.0395 47.3105C69.216 47.4333 71.3586 49.0741 72.6484 52.0655C73.6611 54.4095 74.0661 56.9209 74.4285 59.4323C74.7057 61.341 74.8869 63.2608 75.1321 65.1806C75.26 66.1406 75.4199 67.1005 75.5691 68.0604C75.6117 68.0604 75.665 68.0604 75.7077 68.0604C76.1767 65.895 76.6457 63.7184 77.136 61.4414ZM71.0601 90.652C69.1308 93.4424 67.0522 95.9873 64.7604 98.3536C62.895 100.273 60.859 101.981 58.7164 103.533C58.2048 103.901 57.8424 103.89 57.3733 103.51C56.6059 102.885 55.7957 102.316 55.0069 101.713C51.8304 99.2689 48.963 96.4896 46.5859 93.1857C46.021 92.4044 45.5093 91.5896 44.9657 90.7636C45.3388 90.4957 45.6266 90.239 45.9464 90.0604C46.2661 89.8818 46.3408 89.6586 46.3301 89.3014C46.3088 88.5647 46.3194 87.8392 46.3194 86.9909C46.4793 87.1472 46.5646 87.2141 46.6179 87.2923C47.6732 88.7321 48.899 89.9823 50.3061 91.0426C53.5786 93.5094 57.1815 94.4358 61.1255 93.3866C64.3233 92.5383 66.8283 90.5404 68.9389 87.962C69.4186 87.3815 69.8556 86.7565 70.4099 86.031C70.4099 87.203 70.4206 88.241 70.4099 89.2679C70.3992 89.8483 70.3246 90.4399 71.0601 90.652ZM32.6646 123.2C32.6433 119.941 35.1163 117.306 38.2395 117.262C41.3415 117.217 43.9211 119.885 43.9317 123.144C43.9317 126.359 41.4054 129.004 38.2928 129.038C35.2442 129.06 32.6859 126.403 32.6646 123.2ZM73.7037 92.5383C73.2453 93.1522 72.8296 93.7326 72.3926 94.2907C70.0901 97.271 67.6278 100.095 64.8883 102.651C62.8417 104.56 60.6671 106.29 58.3434 107.808C58.1941 107.908 57.885 107.908 57.7358 107.808C56.382 106.848 55.0283 105.899 53.7278 104.861C50.3487 102.16 47.3108 99.068 44.5073 95.7194C43.6972 94.7484 42.9191 93.7438 42.0983 92.7169C42.8444 92.2146 43.5266 91.757 44.2195 91.2882C44.3154 91.3998 44.3794 91.4891 44.4434 91.5784C46.5646 94.86 49.0802 97.7844 51.8837 100.419C53.6532 102.082 55.5292 103.622 57.6825 104.727C57.8637 104.816 58.1835 104.839 58.3434 104.738C59.3986 104.069 60.4859 103.421 61.4772 102.64C64.6431 100.106 67.2334 96.9807 69.7917 93.8443C70.4845 92.996 71.1667 92.1588 71.8809 91.2882C72.4885 91.7123 73.0641 92.103 73.7037 92.5383ZM73.288 123.144C73.288 122.251 73.2773 121.358 73.2986 120.465C73.3093 120.276 73.4372 120.008 73.5864 119.907C75.0894 118.97 76.6137 118.054 78.138 117.15C78.2446 117.083 78.4472 117.083 78.5538 117.139C80.0887 118.054 81.6237 118.981 83.148 119.929C83.2759 120.008 83.3932 120.242 83.3932 120.409C83.4145 122.207 83.4145 124.015 83.3825 125.812C83.3825 126.002 83.2333 126.258 83.0734 126.359C81.6344 127.263 80.1633 128.133 78.7243 129.038C78.4365 129.216 78.2233 129.205 77.9462 129.026C76.4752 128.122 74.9935 127.252 73.5331 126.336C73.3946 126.247 73.2773 125.99 73.2773 125.812C73.2773 124.919 73.288 124.026 73.288 123.144Z" fill="url(#paint0_linear_0_308)"/>
</g>
<path d="M56.0154 74.3601V72.9863C56.0154 72.2847 56.1226 71.6904 56.337 71.2032C56.5708 70.6965 56.8534 70.2581 57.1847 69.8878C57.5354 69.4981 57.9057 69.1571 58.2954 68.8647C58.6852 68.553 59.0457 68.2509 59.377 67.9586C59.7277 67.6468 60.0103 67.3058 60.2246 66.9355C60.4585 66.5653 60.5754 66.1463 60.5754 65.6786C60.5754 65.4643 60.5462 65.2207 60.4877 64.9478C60.4293 64.675 60.3026 64.4119 60.1077 64.1586C59.9323 63.8858 59.6595 63.6714 59.2893 63.5155C58.919 63.3402 58.4318 63.2525 57.8277 63.2525C57.1652 63.2525 56.6293 63.3499 56.2201 63.5448C55.8303 63.7396 55.5283 63.993 55.3139 64.3048C55.119 64.5971 54.9826 64.9089 54.9047 65.2402C54.8462 65.5714 54.817 65.8832 54.817 66.1755C54.817 66.3119 54.817 66.4483 54.817 66.5848C54.817 66.7017 54.8267 66.8283 54.8462 66.9648H50.8416C50.8221 66.8478 50.7929 66.7017 50.7539 66.5263C50.7344 66.3509 50.7247 66.1463 50.7247 65.9125C50.7247 65.2304 50.8221 64.5873 51.017 63.9832C51.2314 63.3791 51.5334 62.8335 51.9232 62.3463C52.3324 61.8397 52.839 61.4109 53.4431 61.0602C54.0472 60.6899 54.739 60.4074 55.5185 60.2125C56.298 60.0176 57.1652 59.9202 58.12 59.9202C58.9385 59.9202 59.6985 59.9981 60.4 60.154C61.1211 60.2904 61.7544 60.5145 62.3 60.8263C62.8651 61.1186 63.3426 61.4791 63.7323 61.9079C64.1221 62.3366 64.4241 62.8335 64.6385 63.3986C64.8528 63.9637 64.96 64.5873 64.96 65.2694C64.96 66.1268 64.8333 66.8576 64.58 67.4617C64.3267 68.0463 63.9954 68.5627 63.5862 69.0109C63.1964 69.4396 62.7775 69.8196 62.3293 70.1509C61.8811 70.4822 61.4523 70.8135 61.0431 71.1447C60.6534 71.4565 60.3318 71.7976 60.0785 72.1678C59.8252 72.5381 59.6985 72.9863 59.6985 73.5124V74.3601H56.0154ZM55.7816 80.3232V76.2309H59.9323V80.3232H55.7816Z" fill="#00B1DB"/>
</g>
<defs>
<filter id="filter0_d_0_308" x="0" y="0" width="116" height="151" filterUnits="userSpaceOnUse" color-interpolation-filters="sRGB">
<feFlood flood-opacity="0" result="BackgroundImageFix"/>
<feColorMatrix in="SourceAlpha" type="matrix" values="0 0 0 0 0 0 0 0 0 0 0 0 0 0 0 0 0 0 127 0" result="hardAlpha"/>
<feOffset dy="6"/>
<feGaussianBlur stdDeviation="3"/>
<feComposite in2="hardAlpha" operator="out"/>
<feColorMatrix type="matrix" values="0 0 0 0 0 0 0 0 0 0 0 0 0 0 0 0 0 0 0.3 0"/>
<feBlend mode="normal" in2="BackgroundImageFix" result="effect1_dropShadow_0_308"/>
<feBlend mode="normal" in="SourceGraphic" in2="effect1_dropShadow_0_308" result="shape"/>
</filter>
<linearGradient id="paint0_linear_0_308" x1="58" y1="76.125" x2="58" y2="133" gradientUnits="userSpaceOnUse">
<stop stop-color="#00B1DB"/>
<stop offset="1" stop-color="#00B1DB" stop-opacity="0"/>
</linearGradient>
</defs>
</svg>
