<svg width="52" height="52" viewBox="0 0 52 52" fill="none" xmlns="http://www.w3.org/2000/svg">
<circle cx="26" cy="26" r="26" fill="#003152"/>
<circle cx="26" cy="26" r="24" stroke="black" stroke-opacity="0.3" stroke-width="4"/>
<g opacity="0.3" clip-path="url(#clip0_0_470)">
<path d="M6 24.6997C6.09749 23.9783 6.18523 23.2569 6.30222 22.5452C6.8969 19.0453 8.33975 15.9256 10.6113 13.2057C13.6627 9.55957 17.5428 7.28806 22.2028 6.37166C31.2888 4.5681 40.5991 9.46208 44.3037 17.9632C45.571 20.8586 46.117 23.8905 45.9708 27.0395C45.5613 35.9988 38.9807 43.7784 30.2262 45.5332C24.0453 46.7714 18.3812 45.5235 13.4385 41.5459C9.55837 38.4263 7.18937 34.3707 6.31197 29.4572C6.18523 28.765 6.10724 28.0631 6 27.3514C6 26.474 6 25.5869 6 24.6997ZM13.5749 39.6351C20.1068 45.8647 31.708 46.5374 39.1465 38.9332C46.6629 31.251 45.5808 19.8252 39.5852 13.6249C30.9281 22.2917 22.2613 30.9488 13.5749 39.6351ZM12.3661 38.436C21.0524 29.7497 29.7192 21.0828 38.3861 12.4258C32.176 6.44965 20.7502 5.33827 13.0388 12.8937C5.53205 20.2542 6.06824 31.7872 12.3661 38.436ZM24.6985 33.7857C24.4255 33.6005 24.1136 33.659 23.8699 33.8832C23.4701 34.2537 23.0802 34.6437 22.7097 35.0336C22.388 35.3748 22.3783 35.8525 22.6805 36.1547C23.0022 36.4765 23.4506 36.4765 23.8211 36.1255C24.1916 35.7745 24.5523 35.4236 24.8935 35.0434C25.03 34.8874 25.0982 34.6729 25.2445 34.3999C25.0592 34.1757 24.913 33.932 24.6985 33.7857ZM38.6298 17.8852C39.1367 17.4075 39.6534 16.9298 40.1116 16.4033C40.3359 16.1401 40.2091 15.7307 39.9459 15.4869C39.6827 15.253 39.2732 15.1847 39.0197 15.4187C38.542 15.8476 38.0643 16.3059 37.6646 16.8128C37.5379 16.9688 37.5574 17.349 37.6549 17.5635C37.7524 17.7682 38.0448 17.8949 38.2106 18.0217C38.4153 17.9534 38.5518 17.9534 38.6298 17.8852ZM34.9154 25.0117C35.3444 24.612 35.7636 24.2123 36.1535 23.7736C36.4265 23.4713 36.3778 23.0229 36.1146 22.7499C35.8416 22.4672 35.4029 22.4185 35.0909 22.6914C34.6425 23.0911 34.233 23.5201 33.8235 23.949C33.6091 24.1733 33.5701 24.4852 33.7456 24.7387C33.9015 24.9434 34.1453 25.0897 34.3402 25.2554C34.6035 25.1482 34.7984 25.1189 34.9154 25.0117ZM37.031 18.1289C36.758 17.9437 36.4265 17.9924 36.173 18.2264C35.7928 18.5774 35.4224 18.9478 35.0617 19.328C34.701 19.7082 34.6912 20.1469 35.0032 20.4687C35.3249 20.8001 35.7636 20.8001 36.1438 20.4394C36.5143 20.0884 36.875 19.7375 37.2162 19.3573C37.3527 19.211 37.4112 19.0063 37.5574 18.7528C37.3819 18.5384 37.2454 18.2751 37.031 18.1289ZM29.5145 28.2776C29.066 28.687 28.6273 29.116 28.2179 29.5644C27.9547 29.8569 28.0132 30.2761 28.2861 30.5588C28.5591 30.8318 28.9783 30.9098 29.2708 30.6563C29.7387 30.2469 30.1677 29.7984 30.5869 29.3402C30.7916 29.116 30.8209 28.7943 30.6356 28.5506C30.4894 28.3556 30.2457 28.2191 30.0604 28.0729C29.8167 28.1508 29.6217 28.1703 29.5145 28.2776ZM28.6078 26.5228C28.3349 26.3278 28.0229 26.4058 27.7792 26.6203C27.399 26.9712 27.0285 27.3417 26.6678 27.7121C26.3071 28.0826 26.2876 28.5311 26.5996 28.8528C26.9115 29.1842 27.399 29.1647 27.7792 28.804C28.1204 28.4823 28.4616 28.1606 28.7638 27.8096C28.9101 27.6439 28.9881 27.4197 29.144 27.1467C28.9588 26.9225 28.8223 26.6787 28.6078 26.5228ZM25.8001 29.3207C25.5272 29.1355 25.2152 29.2037 24.9715 29.428C24.5815 29.7887 24.2013 30.1591 23.8309 30.5491C23.4896 30.9098 23.4896 31.3388 23.7919 31.6605C24.0843 31.9627 24.562 31.9822 24.913 31.6605C25.2932 31.3095 25.6637 30.939 26.0146 30.5588C26.1414 30.4126 26.1999 30.2079 26.3266 29.9349C26.1609 29.7204 26.0146 29.4767 25.8001 29.3207ZM38.6785 19.8057C38.4056 19.6108 38.0936 19.6985 37.8499 19.913C37.4502 20.2834 37.0602 20.6636 36.6897 21.0633C36.3778 21.4046 36.3875 21.853 36.68 22.1455C36.9822 22.4477 37.4502 22.4574 37.8011 22.1357C38.1716 21.7945 38.5323 21.4338 38.8735 21.0633C39.01 20.9074 39.0782 20.6929 39.2245 20.4199C39.0295 20.1957 38.893 19.952 38.6785 19.8057ZM21.8908 36.6032C21.6081 36.3985 21.2864 36.496 21.0329 36.7202C20.6624 37.0614 20.3017 37.4221 19.9508 37.7828C19.5803 38.1728 19.5706 38.6407 19.9118 38.9527C20.2237 39.2549 20.6917 39.2257 21.0622 38.8747C21.4034 38.553 21.7348 38.2313 22.0468 37.8803C22.193 37.7146 22.271 37.4904 22.427 37.2174C22.2418 37.0029 22.1053 36.7494 21.8908 36.6032ZM19.1611 39.3329C18.8784 39.1282 18.5567 39.2257 18.3032 39.4596C17.923 39.8106 17.5525 40.1811 17.1918 40.5515C16.8408 40.922 16.8506 41.3899 17.1723 41.7019C17.4843 41.9944 17.9425 41.9846 18.2934 41.6532C18.6542 41.3119 19.0051 40.9707 19.3366 40.6003C19.4731 40.4443 19.5413 40.2298 19.6875 39.9568C19.5121 39.7326 19.3658 39.4791 19.1611 39.3329ZM32.3417 25.4504C31.8835 25.8696 31.435 26.2985 31.0158 26.7665C30.7526 27.059 30.8209 27.4879 31.0938 27.7511C31.3668 28.0241 31.786 28.0826 32.0882 27.8194C32.5464 27.4197 32.9656 26.981 33.3848 26.5325C33.5896 26.3083 33.6091 25.9866 33.4336 25.7331C33.2874 25.5284 33.0436 25.4016 32.8681 25.2554C32.6244 25.3431 32.4489 25.3529 32.3417 25.4504ZM22.232 32.1869C21.7836 32.6061 21.3449 33.0253 20.9354 33.4835C20.6819 33.7565 20.7404 34.1757 20.9842 34.4487C21.2376 34.7314 21.6666 34.8191 21.9688 34.5657C22.4465 34.1465 22.9047 33.698 23.3044 33.2106C23.4311 33.0448 23.4311 32.6744 23.3337 32.4599C23.2459 32.2454 22.9632 32.1284 22.778 31.9724C22.5342 32.0602 22.349 32.0894 22.232 32.1869ZM40.3359 19.5425C40.8233 19.0843 41.3107 18.6164 41.7592 18.1192C41.9834 17.8657 41.8762 17.4367 41.6325 17.2028C41.3692 16.9493 40.9793 16.8713 40.7063 17.1053C40.2189 17.5342 39.7509 17.9827 39.3415 18.4799C39.2147 18.6359 39.2245 19.0161 39.322 19.2305C39.4194 19.4353 39.7022 19.562 39.8679 19.6887C40.0921 19.6205 40.2481 19.6205 40.3359 19.5425ZM32.4099 23.4226C32.7414 23.5981 33.0534 23.5201 33.3069 23.2764C33.6871 22.9254 34.0575 22.5549 34.4085 22.1747C34.7399 21.814 34.7302 21.3656 34.4182 21.0536C34.1063 20.7514 33.6481 20.7611 33.2971 21.0828C32.9266 21.4241 32.5659 21.7848 32.2247 22.165C32.098 22.3015 32.0395 22.4964 31.9907 22.5744C31.981 23.0131 32.1175 23.2666 32.4099 23.4226ZM17.494 37.6658C17.2211 37.4806 16.8896 37.5293 16.6361 37.7633C16.2559 38.1143 15.8855 38.4847 15.5247 38.865C15.1738 39.2354 15.1738 39.7034 15.4857 40.0153C15.8075 40.337 16.2559 40.3176 16.6361 39.9568C16.9871 39.6254 17.3283 39.2939 17.65 38.9332C17.7865 38.7772 17.8645 38.5627 18.0205 38.2898C17.845 38.0753 17.7085 37.8121 17.494 37.6658ZM25.7027 33.4835C25.9854 33.6883 26.3168 33.6005 26.5606 33.3763C26.9603 33.0058 27.3502 32.6256 27.7207 32.2259C28.0327 31.8749 28.0132 31.4362 27.7012 31.1438C27.399 30.8513 26.9505 30.8416 26.6191 31.1535C26.2389 31.5045 25.8684 31.8749 25.5174 32.2552C25.3907 32.4014 25.3224 32.6061 25.186 32.8693C25.3614 33.0741 25.4979 33.3275 25.7027 33.4835ZM20.214 34.9361C19.9313 34.7411 19.5998 34.8094 19.3561 35.0434C18.9954 35.3748 18.6444 35.7355 18.3032 36.0865C17.923 36.4862 17.8937 36.9249 18.2252 37.2564C18.5567 37.5976 19.0051 37.5781 19.3951 37.1979C19.7265 36.8859 20.058 36.5642 20.3602 36.2327C20.5065 36.067 20.5942 35.8428 20.7599 35.5698C20.565 35.3456 20.4285 35.0921 20.214 34.9361ZM29.6315 26.2108C29.9337 26.4155 30.2652 26.2985 30.5186 26.0646C30.8794 25.7331 31.2303 25.3724 31.5715 25.0214C31.9322 24.6412 31.942 24.1928 31.6105 23.871C31.2986 23.5591 30.8306 23.5688 30.4602 23.9198C30.1092 24.2513 29.768 24.5827 29.4463 24.9434C29.3098 25.0994 29.2318 25.3139 29.0855 25.5771C29.2805 25.8111 29.417 26.0646 29.6315 26.2108ZM22.3393 25.8501C22.076 25.6649 21.7543 25.7136 21.5106 25.9378C21.1109 26.3083 20.7209 26.6885 20.3407 27.0785C19.9995 27.4392 19.9995 27.8779 20.3115 28.1898C20.6332 28.5213 21.0816 28.5213 21.4521 28.1606C21.8128 27.8194 22.1638 27.4782 22.4952 27.1077C22.6317 26.9517 22.7097 26.7372 22.856 26.4643C22.6902 26.2595 22.5537 26.0061 22.3393 25.8501ZM16.7531 31.4362C16.4704 31.2413 16.1487 31.2998 15.8952 31.5337C15.515 31.8847 15.1445 32.2552 14.7838 32.6354C14.4329 33.0058 14.4134 33.464 14.7156 33.7857C15.0373 34.1172 15.515 34.0977 15.8952 33.737C16.2364 33.4153 16.5679 33.0838 16.8798 32.7426C17.0261 32.5769 17.1138 32.3624 17.2796 32.0894C17.0943 31.8457 16.9676 31.5825 16.7531 31.4362ZM33.5311 14.6485C33.2581 14.4535 32.9461 14.5218 32.7024 14.7363C32.3027 15.1067 31.9127 15.4869 31.5325 15.8866C31.2011 16.2279 31.2108 16.7056 31.513 17.0078C31.825 17.3295 32.293 17.3197 32.6634 16.9688C33.0144 16.6373 33.3556 16.3059 33.6773 15.9451C33.8235 15.7794 33.9113 15.5649 34.0673 15.2822C33.882 15.0482 33.7358 14.8045 33.5311 14.6485ZM13.8869 32.2747C14.4134 31.7775 14.9593 31.29 15.4175 30.7441C15.6417 30.4808 15.4955 30.1201 15.2323 29.8667C14.9885 29.6327 14.5596 29.5839 14.2964 29.8082C13.8284 30.2176 13.3897 30.6661 12.9705 31.1243C12.756 31.3485 12.7365 31.6702 12.9315 31.9237C13.0875 32.1284 13.3215 32.2552 13.4872 32.3819C13.6919 32.3234 13.8187 32.3331 13.8869 32.2747ZM12.3173 32.5086C12.0931 32.4209 11.7226 32.4501 11.5374 32.5866C11.1085 32.9083 10.7282 33.3178 10.3578 33.7078C9.99708 34.088 9.99708 34.5169 10.3285 34.8484C10.6503 35.1701 11.0987 35.1603 11.4692 34.7996C11.8201 34.4682 12.1613 34.1367 12.4831 33.776C12.6293 33.6103 12.717 33.386 12.8633 33.1131C12.6683 32.8986 12.5318 32.5964 12.3173 32.5086ZM31.8348 12.9815C31.6105 12.8937 31.2401 12.9327 31.0548 13.0692C30.6356 13.3714 30.2847 13.7711 29.924 14.1416C29.534 14.5413 29.5145 14.98 29.846 15.3115C30.1774 15.6527 30.6161 15.6332 31.0256 15.253C31.3668 14.9312 31.708 14.6095 32.02 14.2586C32.1662 14.0928 32.254 13.8686 32.4002 13.5956C32.1955 13.3617 32.059 13.0692 31.8348 12.9815ZM20.6722 24.1928C20.448 24.105 20.0775 24.105 19.8923 24.2415C19.4633 24.5535 19.1026 24.9532 18.7321 25.3334C18.3519 25.7234 18.3227 26.1718 18.6542 26.5033C18.9661 26.825 19.4438 26.8152 19.8338 26.4448C20.175 26.1231 20.5162 25.8013 20.8184 25.4504C20.9647 25.2846 21.0427 25.0604 21.1889 24.7874C21.0037 24.5632 20.8867 24.2708 20.6722 24.1928ZM34.5742 10.2225C34.3207 10.0568 34.0088 10.0958 33.7748 10.3102C33.3946 10.6612 33.0241 11.0219 32.6537 11.3924C32.2637 11.7921 32.2442 12.2308 32.5757 12.5622C32.9071 12.8937 33.3458 12.884 33.7553 12.494C34.0965 12.1723 34.4377 11.8506 34.7497 11.4996C34.8959 11.3339 34.9739 11.1097 35.1299 10.8367C34.9349 10.6222 34.7887 10.3687 34.5742 10.2225ZM35.2469 14.3366C35.6953 13.9076 36.1535 13.4787 36.563 13.0107C36.8067 12.728 36.7482 12.3088 36.4948 12.0553C36.2315 11.7823 35.8026 11.7043 35.5101 11.9676C35.0422 12.377 34.5937 12.8157 34.2038 13.2934C34.0673 13.4592 34.0575 13.8394 34.155 14.0441C34.2525 14.2586 34.545 14.3951 34.7399 14.551C34.9642 14.4535 35.1397 14.434 35.2469 14.3366ZM12.912 36.6422C13.3995 36.1742 13.8967 35.716 14.3256 35.2091C14.5596 34.9361 14.4524 34.5852 14.2086 34.3219C13.9649 34.0587 13.5554 33.971 13.2825 34.1952C12.7853 34.6242 12.2978 35.0921 11.8884 35.5991C11.7616 35.755 11.7811 36.145 11.8884 36.3497C11.9859 36.5544 12.2783 36.6714 12.4441 36.7982C12.678 36.7299 12.834 36.7202 12.912 36.6422ZM30.7331 17.4465C30.4699 17.2612 30.1482 17.31 29.9045 17.5342C29.5145 17.8949 29.1343 18.2654 28.7638 18.6554C28.4129 19.0356 28.4129 19.4938 28.7346 19.8057C29.0466 20.1079 29.5145 20.0982 29.885 19.7472C30.2359 19.4158 30.5771 19.0843 30.8989 18.7236C31.0353 18.5676 31.1133 18.3531 31.2596 18.0899C31.0743 17.8559 30.9476 17.6025 30.7331 17.4465ZM25.147 23.0521C24.8837 22.8669 24.562 22.9059 24.3183 23.1301C23.9283 23.4908 23.5384 23.8613 23.1777 24.2415C22.8267 24.612 22.8267 25.0799 23.1387 25.3919C23.4604 25.7136 23.8991 25.7039 24.2891 25.3431C24.64 25.0117 24.9812 24.6802 25.3029 24.3195C25.4394 24.1635 25.5174 23.949 25.6637 23.6761C25.4882 23.4616 25.3614 23.1984 25.147 23.0521ZM29.0563 15.7794C28.7833 15.5747 28.4519 15.6429 28.1984 15.8769C27.8279 16.2181 27.4672 16.5788 27.1163 16.9395C26.7458 17.3295 26.7165 17.7877 27.048 18.1192C27.3697 18.4409 27.8377 18.4214 28.2276 18.0509C28.5591 17.7389 28.8808 17.4172 29.183 17.0858C29.3293 16.92 29.4268 16.6958 29.5827 16.4326C29.4073 16.1986 29.2708 15.9354 29.0563 15.7794ZM24.4743 21.0536C24.7765 21.2486 25.108 21.1511 25.3614 20.9074C25.7222 20.5661 26.0731 20.2152 26.4143 19.8642C26.775 19.484 26.7945 19.0453 26.4728 18.7138C26.1414 18.3726 25.7027 18.3824 25.3029 18.7626C24.9617 19.0843 24.6205 19.406 24.3086 19.757C24.1623 19.9227 24.0843 20.1469 23.9283 20.4199C24.1233 20.6539 24.2598 20.9074 24.4743 21.0536ZM22.4465 23.7833C22.895 23.3738 23.3337 22.9449 23.7334 22.4964C23.9966 22.1942 23.9283 21.775 23.6651 21.5118C23.3922 21.2388 22.9827 21.1706 22.6805 21.4436C22.2223 21.8433 21.7738 22.2625 21.4034 22.7402C21.2669 22.9156 21.2571 23.2959 21.3449 23.5201C21.4229 23.7248 21.7153 23.8515 21.9006 24.0075C22.1443 23.91 22.3295 23.8808 22.4465 23.7833ZM17.1041 27.0102C16.6459 27.4489 16.1779 27.8779 15.7587 28.3556C15.515 28.6383 15.593 29.0477 15.8562 29.311C16.1194 29.5742 16.5094 29.6522 16.8116 29.3987C17.2893 28.9893 17.7573 28.5408 18.1472 28.0534C18.2739 27.8876 18.2739 27.5074 18.1765 27.3027C18.0692 27.0882 17.7767 26.9615 17.5818 26.8152C17.3575 26.903 17.1918 26.9225 17.1041 27.0102ZM17.7475 31.1243C18.0302 31.3095 18.3617 31.2413 18.6054 31.0073C18.9759 30.6661 19.3366 30.3054 19.6875 29.9447C20.0483 29.5644 20.0678 29.1257 19.7558 28.7943C19.4243 28.4531 18.9856 28.4628 18.5859 28.843C18.2447 29.1647 17.9132 29.4865 17.6013 29.8374C17.455 30.0031 17.377 30.2274 17.2211 30.5003C17.4063 30.7246 17.533 30.978 17.7475 31.1243ZM27.2235 20.2639C26.7458 20.7221 26.2583 21.1706 25.8294 21.658C25.5954 21.9213 25.6832 22.321 25.9269 22.5744C26.1901 22.8474 26.5898 22.9254 26.8725 22.6817C27.36 22.2625 27.8279 21.8043 28.2276 21.3071C28.3544 21.1511 28.3349 20.7709 28.2374 20.5564C28.1399 20.3517 27.8572 20.2347 27.6817 20.1079C27.4672 20.1762 27.3112 20.1762 27.2235 20.2639Z" fill="black"/>
</g>
<path d="M10.8159 44.5508C10.1067 45.4173 10.23 46.7018 11.149 47.3413C14.0908 49.3884 17.4304 50.8095 20.9606 51.507C25.1553 52.3357 29.4896 52.1172 33.5796 50.8707C37.6696 49.6242 41.389 47.3883 44.4085 44.361C47.428 41.3337 49.6543 37.6085 50.8902 33.5153C52.1261 29.4221 52.3334 25.0872 51.4938 20.8947C50.6543 16.7022 48.7937 12.7815 46.0769 9.47985C43.3602 6.17818 39.8711 3.59747 35.9187 1.96633C32.5924 0.593553 29.0243 -0.070987 25.4412 0.00604532C24.3218 0.0301109 23.5082 1.03173 23.6194 2.14584C23.7306 3.25995 24.7248 4.06313 25.8445 4.05519C28.7623 4.03451 31.6621 4.59597 34.3719 5.7143C37.7079 7.09107 40.6529 9.26932 42.946 12.0561C45.2391 14.8429 46.8095 18.1522 47.5182 21.6909C48.2268 25.2296 48.0518 28.8884 47.0087 32.3433C45.9655 35.7982 44.0864 38.9425 41.5378 41.4977C38.9892 44.0529 35.8497 45.9401 32.3976 46.9922C28.9454 48.0443 25.287 48.2288 21.7465 47.5293C18.8706 46.9611 16.1446 45.8239 13.7258 44.1919C12.7976 43.5657 11.525 43.6844 10.8159 44.5508Z" fill="#00B1DB"/>
<path d="M12.1263 29.9375V29.0735C12.1263 28.3535 12.2543 27.6975 12.5103 27.1055C12.7663 26.5135 13.1183 25.9695 13.5663 25.4735C14.0143 24.9775 14.5103 24.5055 15.0543 24.0575C15.5983 23.6095 16.1583 23.1775 16.7343 22.7615C17.3903 22.2655 18.0063 21.7775 18.5823 21.2975C19.1743 20.8175 19.6543 20.3055 20.0223 19.7615C20.3903 19.2015 20.5743 18.5855 20.5743 17.9135C20.5743 17.5935 20.4943 17.2735 20.3343 16.9535C20.1743 16.6335 19.9183 16.3695 19.5663 16.1615C19.2303 15.9375 18.7743 15.8255 18.1983 15.8255C17.6063 15.8255 17.1183 15.9295 16.7343 16.1375C16.3503 16.3295 16.0543 16.6095 15.8463 16.9775C15.6543 17.3295 15.5583 17.7695 15.5583 18.2975V19.1615H12.3423C12.3263 19.0815 12.3103 18.9695 12.2943 18.8255C12.2783 18.6815 12.2703 18.5055 12.2703 18.2975C12.2703 17.1295 12.5343 16.1695 13.0623 15.4175C13.6063 14.6655 14.3343 14.1055 15.2463 13.7375C16.1743 13.3695 17.2223 13.1855 18.3903 13.1855C19.4463 13.1855 20.3263 13.3375 21.0303 13.6415C21.7503 13.9295 22.3263 14.3215 22.7583 14.8175C23.1903 15.2975 23.4943 15.8255 23.6703 16.4015C23.8623 16.9615 23.9583 17.5055 23.9583 18.0335C23.9583 18.7855 23.8223 19.4735 23.5503 20.0975C23.2783 20.7215 22.9103 21.3055 22.4463 21.8495C21.9823 22.3935 21.4303 22.9215 20.7903 23.4335C20.1503 23.9295 19.4703 24.4255 18.7503 24.9215C18.3823 25.1775 18.0303 25.4255 17.6943 25.6655C17.3743 25.9055 17.0943 26.1375 16.8543 26.3615C16.6303 26.5695 16.4543 26.7775 16.3263 26.9855H24.0783V29.9375H12.1263ZM32.1352 30.2255C30.9192 30.2255 29.9032 30.0015 29.0872 29.5535C28.2872 29.1055 27.6872 28.4895 27.2872 27.7055C26.8872 26.9215 26.6872 26.0175 26.6872 24.9935H29.9512C29.9512 25.5535 30.0312 26.0335 30.1912 26.4335C30.3512 26.8335 30.5992 27.1375 30.9352 27.3455C31.2712 27.5375 31.6952 27.6335 32.2072 27.6335C32.9592 27.6335 33.5272 27.4415 33.9112 27.0575C34.2952 26.6575 34.5512 26.0815 34.6792 25.3295C34.8232 24.5615 34.9032 23.6495 34.9192 22.5935C34.7752 22.7535 34.5352 22.9455 34.1992 23.1695C33.8792 23.3935 33.4712 23.5935 32.9752 23.7695C32.4952 23.9295 31.9592 24.0095 31.3672 24.0095C30.2312 24.0095 29.2792 23.7855 28.5112 23.3375C27.7432 22.8895 27.1592 22.2575 26.7592 21.4415C26.3752 20.6255 26.1832 19.7055 26.1832 18.6815C26.1832 17.5295 26.4312 16.5455 26.9272 15.7295C27.4232 14.9135 28.1112 14.2895 28.9912 13.8575C29.8712 13.4095 30.8792 13.1855 32.0152 13.1855C33.0232 13.1855 33.9192 13.3295 34.7032 13.6175C35.4872 13.8895 36.1432 14.3375 36.6712 14.9615C37.2152 15.5855 37.6232 16.4175 37.8952 17.4575C38.1832 18.4815 38.3272 19.7375 38.3272 21.2255C38.3272 22.9055 38.1912 24.3215 37.9192 25.4735C37.6472 26.6255 37.2472 27.5535 36.7192 28.2575C36.2072 28.9455 35.5592 29.4495 34.7752 29.7695C34.0072 30.0735 33.1272 30.2255 32.1352 30.2255ZM32.1352 21.5615C32.7272 21.5615 33.2152 21.4415 33.5992 21.2015C33.9992 20.9455 34.2872 20.6015 34.4632 20.1695C34.6552 19.7215 34.7512 19.2175 34.7512 18.6575C34.7512 18.0815 34.6552 17.5775 34.4632 17.1455C34.2872 16.7135 33.9992 16.3775 33.5992 16.1375C33.2152 15.8815 32.7272 15.7535 32.1352 15.7535C31.5592 15.7535 31.0792 15.8815 30.6952 16.1375C30.3112 16.3935 30.0232 16.7375 29.8312 17.1695C29.6392 17.6015 29.5432 18.0975 29.5432 18.6575C29.5432 19.2335 29.6392 19.7375 29.8312 20.1695C30.0232 20.6015 30.3112 20.9455 30.6952 21.2015C31.0792 21.4415 31.5592 21.5615 32.1352 21.5615Z" fill="white"/>
<path d="M21.644 40.2018C21.4051 40.2018 21.1747 40.1762 20.9528 40.125C20.7309 40.0781 20.5347 40.0013 20.364 39.8946C20.1933 39.7837 20.0589 39.645 19.9608 39.4786C19.8627 39.308 19.8136 39.1053 19.8136 38.8706C19.8136 38.845 19.8136 38.8216 19.8136 38.8002C19.8179 38.7746 19.82 38.7533 19.82 38.7362H20.5368C20.5368 38.749 20.5347 38.7682 20.5304 38.7938C20.5304 38.8194 20.5304 38.8408 20.5304 38.8578C20.5304 39.0157 20.5773 39.1501 20.6712 39.261C20.7651 39.372 20.8952 39.4552 21.0616 39.5106C21.2323 39.5661 21.4264 39.5938 21.644 39.5938C21.7635 39.5938 21.8787 39.5874 21.9896 39.5746C22.1005 39.5576 22.2008 39.5341 22.2904 39.5042C22.3843 39.4701 22.4653 39.4296 22.5336 39.3826C22.6019 39.3314 22.6552 39.2717 22.6936 39.2034C22.732 39.1352 22.7512 39.0562 22.7512 38.9666C22.7512 38.8301 22.7107 38.717 22.6296 38.6274C22.5528 38.5378 22.4461 38.4632 22.3096 38.4034C22.1773 38.3437 22.0259 38.2904 21.8552 38.2434C21.6888 38.1965 21.516 38.1496 21.3368 38.1026C21.1576 38.0557 20.9827 38.0002 20.812 37.9362C20.6456 37.8722 20.4941 37.7954 20.3576 37.7058C20.2253 37.612 20.1187 37.4968 20.0376 37.3602C19.9608 37.2194 19.9224 37.0488 19.9224 36.8482C19.9224 36.6562 19.9629 36.4856 20.044 36.3362C20.1251 36.1869 20.2424 36.0632 20.396 35.965C20.5496 35.8626 20.7331 35.7858 20.9464 35.7346C21.1597 35.6834 21.4008 35.6578 21.6696 35.6578C21.9 35.6578 22.1176 35.6834 22.3224 35.7346C22.5272 35.7816 22.7064 35.8562 22.86 35.9586C23.0136 36.061 23.1331 36.1912 23.2184 36.349C23.308 36.5069 23.3528 36.6946 23.3528 36.9122V36.989H22.6424V36.9058C22.6424 36.7693 22.6019 36.6541 22.5208 36.5602C22.4397 36.4664 22.3267 36.3938 22.1816 36.3426C22.0365 36.2914 21.868 36.2658 21.676 36.2658C21.4499 36.2658 21.26 36.2893 21.1064 36.3362C20.9528 36.3789 20.8355 36.4408 20.7544 36.5218C20.6776 36.5986 20.6392 36.6925 20.6392 36.8034C20.6392 36.9272 20.6797 37.0296 20.7608 37.1106C20.8419 37.1874 20.9485 37.2536 21.0808 37.309C21.2173 37.3645 21.3688 37.4157 21.5352 37.4626C21.7059 37.5053 21.8787 37.5522 22.0536 37.6034C22.2328 37.6504 22.4056 37.7058 22.572 37.7698C22.7427 37.8338 22.8941 37.9128 23.0264 38.0066C23.1629 38.1005 23.2717 38.2178 23.3528 38.3586C23.4339 38.4952 23.4744 38.6637 23.4744 38.8642C23.4744 39.18 23.3955 39.4381 23.2376 39.6386C23.0797 39.8349 22.8621 39.9778 22.5848 40.0674C22.3117 40.157 21.9981 40.2018 21.644 40.2018ZM25.6115 40.2018C25.2659 40.2018 24.9758 40.14 24.7411 40.0162C24.5107 39.8882 24.3358 39.6941 24.2163 39.4338C24.0968 39.1736 24.0371 38.8429 24.0371 38.4418C24.0371 38.0365 24.0968 37.7058 24.2163 37.4498C24.3358 37.1896 24.5128 36.9976 24.7475 36.8738C24.9822 36.7458 25.2744 36.6818 25.6243 36.6818C25.9443 36.6818 26.211 36.7437 26.4243 36.8674C26.6419 36.9869 26.8062 37.1704 26.9171 37.4178C27.028 37.6653 27.0835 37.9768 27.0835 38.3522V38.6082H24.7219C24.7304 38.8472 24.7667 39.0477 24.8307 39.2098C24.8947 39.3677 24.9907 39.485 25.1187 39.5618C25.251 39.6344 25.4174 39.6706 25.6179 39.6706C25.7416 39.6706 25.8526 39.6557 25.9507 39.6258C26.0488 39.5917 26.132 39.5448 26.2003 39.485C26.2686 39.421 26.3219 39.3464 26.3603 39.261C26.3987 39.1714 26.4179 39.0712 26.4179 38.9602H27.0707C27.0707 39.1608 27.0366 39.3378 26.9683 39.4914C26.9 39.645 26.7998 39.7752 26.6675 39.8818C26.5395 39.9842 26.3859 40.0632 26.2067 40.1186C26.0275 40.1741 25.8291 40.2018 25.6115 40.2018ZM24.7347 38.1218H26.3859C26.3859 37.9554 26.3667 37.8168 26.3283 37.7058C26.2942 37.5906 26.243 37.4968 26.1747 37.4242C26.1064 37.3517 26.0254 37.3005 25.9315 37.2706C25.8376 37.2365 25.731 37.2194 25.6115 37.2194C25.4323 37.2194 25.2787 37.2514 25.1507 37.3154C25.027 37.3794 24.931 37.4797 24.8627 37.6162C24.7944 37.7485 24.7518 37.917 24.7347 38.1218ZM29.0977 40.2018C28.7606 40.2018 28.479 40.14 28.2529 40.0162C28.0267 39.8882 27.8561 39.6941 27.7409 39.4338C27.6299 39.1736 27.5745 38.8429 27.5745 38.4418C27.5745 38.0408 27.6321 37.7122 27.7473 37.4562C27.8625 37.196 28.0331 37.0018 28.2593 36.8738C28.4897 36.7458 28.7713 36.6818 29.1041 36.6818C29.3345 36.6818 29.535 36.7117 29.7057 36.7714C29.8763 36.8269 30.0214 36.9122 30.1409 37.0274C30.2603 37.1384 30.3478 37.277 30.4033 37.4434C30.463 37.6098 30.4929 37.7997 30.4929 38.013H29.8209C29.8209 37.8338 29.7953 37.6866 29.7441 37.5714C29.6929 37.4562 29.6139 37.3709 29.5073 37.3154C29.4006 37.2557 29.2619 37.2258 29.0913 37.2258C28.9121 37.2258 28.7606 37.2685 28.6369 37.3538C28.5131 37.4349 28.4193 37.5608 28.3553 37.7314C28.2913 37.8978 28.2593 38.1176 28.2593 38.3906V38.4994C28.2593 38.7597 28.2891 38.9773 28.3489 39.1522C28.4129 39.3229 28.5067 39.4509 28.6305 39.5362C28.7585 39.6173 28.9206 39.6578 29.1169 39.6578C29.2875 39.6578 29.4241 39.628 29.5265 39.5682C29.6331 39.5042 29.7121 39.4146 29.7633 39.2994C29.8187 39.18 29.8465 39.037 29.8465 38.8706H30.4929C30.4929 39.0712 30.463 39.2525 30.4033 39.4146C30.3478 39.5768 30.2603 39.7176 30.1409 39.837C30.0257 39.9522 29.8806 40.0418 29.7057 40.1058C29.5307 40.1698 29.3281 40.2018 29.0977 40.2018Z" fill="white"/>
<defs>
<clipPath id="clip0_0_470">
<rect width="40" height="40" fill="white" transform="translate(6 6.00102)"/>
</clipPath>
</defs>
</svg>
